# Blender v2.77 (sub 0) OBJ File: ''
# www.blender.org
mtllib lowpoyltree.mtl
o pCylinder4
v 0.535450 1.791233 -0.126995
v 0.489265 1.789894 -0.249282
v 0.417469 1.791232 -0.358547
v 0.322433 1.790677 -0.443836
v 0.211662 1.792920 -0.507540
v 0.085876 1.790475 -0.542210
v -0.044465 1.792917 -0.548107
v -0.169586 1.789809 -0.521915
v -0.286240 1.791233 -0.469999
v -0.417471 1.791236 -0.358535
v -0.488892 1.791544 -0.249107
v -0.535450 1.791230 -0.126993
v -0.548486 1.791232 0.044689
v -0.521894 1.789906 0.169579
v -0.488651 1.792632 0.248971
v -0.443810 1.790673 0.322457
v -0.387779 1.792617 0.387810
v -0.286247 1.791224 0.469998
v -0.126997 1.791231 0.535450
v 0.000029 1.789788 0.548780
v 0.127081 1.792918 0.535022
v 0.249237 1.790471 0.489129
v 0.358143 1.792913 0.417290
v 0.443813 1.790681 0.322449
v 0.507834 1.791233 0.211979
v 0.548486 1.791232 0.044688
v 0.011592 2.544885 0.005907
v 0.000871 2.544883 0.012799
v -0.013634 2.545004 0.003179
v -0.004009 2.544879 -0.012336
v 0.009941 2.544891 -0.008634
vt 0.3053 0.0052
vt 0.1832 0.0148
vt 0.2431 0.0037
vt 0.3834 0.4981
vt 0.4765 0.4186
vt 0.4346 0.4628
vt 0.0147 0.3454
vt 0.0098 0.2040
vt 0.0305 0.1453
vt 0.4185 0.0521
vt 0.2642 0.5267
vt 0.1282 0.4877
vt 0.0520 0.4186
vt 0.0036 0.2856
vt 0.5249 0.2856
vt 0.5056 0.3651
vt 0.4980 0.1453
vt 0.2039 0.5189
vt 0.6883 0.2587
vt 0.8068 0.0309
vt 0.8420 0.0523
vt 0.6929 0.2621
vt 0.5781 0.9626
vt 0.5771 0.9185
vt 0.9385 0.7666
vt 0.6829 0.2638
vt 0.5520 0.0412
vt 0.6276 0.0102
vt 0.6879 0.0022
vt 0.7884 0.5055
vt 0.7289 0.5231
vt 0.6854 0.2695
vt 0.6920 0.2680
vt 0.2102 0.5788
vt 0.2094 0.5520
vt 0.5708 0.7637
vt 0.2102 0.6452
vt 0.2094 0.6100
vt 0.2098 0.7430
vt 0.2091 0.6832
vt 0.2098 0.8246
vt 0.2098 0.8833
vt 0.6668 0.5248
vt 0.6069 0.5137
vt 0.5775 0.7855
vt 0.5775 0.7039
vt 0.9386 0.7608
vt 0.5776 0.5939
vt 0.5771 0.5520
vt 0.5769 0.6451
vt 0.3649 0.0230
vt 0.0305 0.3835
vt 0.0787 0.4499
vt 0.4627 0.0940
vt 0.3247 0.5188
vt 0.0658 0.0940
vt 0.1282 0.0410
vt 0.5187 0.2040
vt 0.5775 0.8650
vt 0.7483 0.0102
vt 0.2098 0.9346
vt 0.2094 0.9765
vt 0.5709 0.7688
vt 0.5520 0.4875
vt 0.8420 0.4764
vn 0.1433 -0.4338 -0.8896
vn -0.2808 -0.4387 -0.8536
vn 0.0555 -0.5484 -0.8344
vn 0.4105 -0.4336 0.8022
vn 0.7301 -0.4405 0.5224
vn 0.4415 -0.5606 0.7006
vn -0.8574 -0.4422 0.2633
vn -0.8828 -0.4255 -0.1991
vn -0.8037 -0.4316 -0.4096
vn 0.5310 -0.4335 -0.7281
vn -0.0009 -0.4388 0.8986
vn -0.4658 -0.4226 0.7774
vn -0.7230 -0.4405 0.5321
vn -0.9085 -0.4136 0.0597
vn 0.9025 -0.4243 0.0737
vn 0.8391 -0.4268 0.3373
vn 0.8009 -0.4387 -0.4076
vn -0.2318 -0.4115 0.8815
vn 0.0378 0.8331 0.5519
vn 0.4841 0.8422 0.2374
vn -0.4876 0.8622 0.1376
vn 0.2385 -0.1553 -0.9586
vn -0.1983 0.8421 -0.5015
vn 0.4083 0.8462 -0.3424
vn -0.4950 -0.2346 0.8366
vn -0.7544 -0.1611 0.6364
vn 0.8910 -0.4103 -0.1943
vn 0.6867 -0.4213 -0.5924
vn 0.0756 -0.5487 0.8326
vn -0.6808 -0.4268 -0.5953
vn -0.4866 -0.4120 -0.7704
usemtl phong2SG
s 1
f 6/1/1 8/2/2 7/3/3
f 22/4/4 24/5/5 23/6/6
f 14/7/7 12/8/8 11/9/9 8/2/2
f 6/1/1 4/10/10 8/2/2
f 20/11/11 18/12/12 16/13/13 14/7/7
f 13/14/14 12/8/8 14/7/7
f 26/15/15 25/16/16 20/11/11 2/17/17
f 19/18/18 18/12/12 20/11/11
f 28/19/19 22/20/4 23/21/6 27/22/20
f 23/23/6 24/24/5 27/25/20
f 29/26/21 18/27/12 19/28/18 28/19/19
f 19/28/18 20/29/11 28/19/19
f 5/30/22 6/31/1 30/32/23 31/33/24
f 17/34/25 18/35/12 29/36/21
f 15/37/26 16/38/13 29/36/21
f 13/39/14 14/40/7 29/36/21
f 12/41/8 13/39/14 29/36/21
f 11/42/9 12/41/8 29/36/21
f 7/43/3 8/44/2 30/32/23
f 26/45/15 1/46/27 31/47/24 27/25/20
f 6/31/1 7/43/3 30/32/23
f 3/48/28 4/49/10 31/47/24
f 2/50/17 3/48/28 31/47/24
f 4/10/10 6/1/1 5/51/22
f 14/7/7 16/13/13 15/52/26
f 16/13/13 18/12/12 17/53/25
f 8/2/2 4/10/10 3/54/28 2/17/17
f 20/11/11 22/4/4 21/55/29
f 10/56/30 9/57/31 8/2/2
f 11/9/9 10/56/30 8/2/2
f 2/17/17 14/7/7 8/2/2
f 2/17/17 20/11/11 14/7/7
f 24/5/5 22/4/4 20/11/11
f 25/16/16 24/5/5 20/11/11
f 1/58/27 26/15/15 2/17/17
f 28/19/19 31/33/24 30/32/23
f 28/19/19 30/32/23 29/26/21
f 28/19/19 27/22/20 31/33/24
f 25/59/16 26/45/15 27/25/20
f 24/24/5 25/59/16 27/25/20
f 21/60/29 22/20/4 28/19/19
f 20/29/11 21/60/29 28/19/19
f 16/38/13 17/34/25 29/36/21
f 14/40/7 15/37/26 29/36/21
f 10/61/30 11/42/9 29/36/21
f 9/62/31 10/61/30 30/63/23
f 30/63/23 10/61/30 29/36/21
f 8/44/2 9/64/31 30/32/23
f 4/65/10 5/30/22 31/33/24
f 1/46/27 2/50/17 31/47/24
o pCylinder2
v 0.896816 0.724467 -0.291374
v 0.807875 0.725420 -0.492016
v 0.667427 0.723028 -0.667427
v 0.492020 0.725416 -0.807871
v 0.148672 0.725816 -0.938629
v -0.147617 0.724119 -0.931996
v -0.363834 0.728316 -0.872397
v -0.616371 0.725056 -0.717624
v -0.763153 0.722965 -0.554413
v -0.872399 0.728316 -0.363826
v -0.931995 0.724119 -0.147613
v -0.942131 0.728317 0.076431
v -0.896816 0.724463 0.291375
v -0.807875 0.725419 0.492016
v -0.666908 0.725949 0.666901
v -0.492016 0.725419 0.807871
v -0.291466 0.723058 0.897103
v -0.076430 0.728316 0.942131
v 0.147614 0.724119 0.931996
v 0.363823 0.728315 0.872400
v 0.554237 0.724463 0.762886
v 0.717789 0.723472 0.616745
v 0.872400 0.728316 0.363823
v 0.931994 0.724119 0.147614
v 0.942131 0.728317 -0.076428
v -0.014386 2.021157 0.019801
v -0.015013 2.020947 -0.017836
v 0.025176 2.021815 -0.003987
vt 0.2232 0.0052
vt 0.0938 0.0660
vt 0.1636 0.0230
vt 0.0051 0.2233
vt 0.0147 0.3454
vt 0.0035 0.2855
vt 0.3053 0.5235
vt 0.4185 0.4766
vt 0.3649 0.5058
vt 0.5234 0.3054
vt 0.5138 0.1833
vt 0.5249 0.2432
vt 0.3049 0.0073
vt 0.4003 0.0410
vt 0.4498 0.0789
vt 0.1282 0.4877
vt 0.0787 0.4499
vt 0.1832 0.5139
vt 0.4626 0.4348
vt 0.5770 0.8053
vt 0.5781 0.7431
vt 0.9386 0.7634
vt 0.7884 0.0232
vt 0.6923 0.2654
vt 0.6852 0.2604
vt 0.8420 0.0523
vt 0.7289 0.0056
vt 0.5520 0.0413
vt 0.6069 0.0151
vt 0.2098 0.5788
vt 0.2094 0.5520
vt 0.5709 0.7607
vt 0.2104 0.7431
vt 0.2094 0.6832
vt 0.2096 0.9626
vt 0.2091 0.9185
vt 0.5709 0.7681
vt 0.5873 0.5055
vt 0.5338 0.4764
vt 0.6849 0.2687
vt 0.6469 0.5231
vt 0.8238 0.4875
vt 0.7285 0.5211
vt 0.5768 0.5787
vt 0.5771 0.5520
vt 0.5771 0.6832
vt 0.2093 0.8053
vt 0.0520 0.1102
vt 0.0228 0.1637
vt 0.2431 0.5251
vt 0.5056 0.3650
vt 0.4876 0.1283
vt 0.0409 0.4004
vt 0.5781 0.8649
vt 0.5770 0.9347
vt 0.5771 0.9765
vt 0.6668 0.0040
vt 0.2098 0.6282
vt 0.2104 0.8649
vt 0.5775 0.6282
vn -0.1270 -0.4312 -0.8933
vn -0.5828 -0.4174 -0.6972
vn -0.2115 -0.5760 -0.7896
vn -0.8912 -0.4331 -0.1349
vn -0.8520 -0.4401 0.2835
vn -0.8271 -0.5597 -0.0511
vn 0.1426 -0.4332 0.8899
vn 0.5313 -0.4315 0.7291
vn 0.2004 -0.4953 0.8453
vn 0.8891 -0.4353 0.1415
vn 0.8555 -0.4351 -0.2807
vn 0.8651 -0.4799 0.1460
vn 0.1542 -0.4089 -0.8995
vn 0.4506 -0.4124 -0.7917
vn 0.6360 -0.4372 -0.6360
vn -0.4754 -0.4184 0.7739
vn -0.6414 -0.4216 0.6410
vn -0.2791 -0.4389 0.8541
vn 0.6918 -0.4267 0.5825
vn 0.4782 0.8767 -0.0525
vn -0.2531 0.8679 0.4275
vn -0.7255 -0.4399 -0.5292
vn -0.3102 0.8438 -0.4379
vn -0.7181 -0.5488 -0.4280
vn -0.1853 -0.5496 0.8146
vn 0.6992 -0.5670 0.4354
vn 0.7811 -0.4062 -0.4742
vn -0.7718 -0.4286 0.4697
usemtl phong2SG
s 1
f 37/66/32 39/67/33 38/68/34
f 42/69/35 44/70/36 43/71/37
f 50/72/38 52/73/39 51/74/40
f 55/75/41 32/76/42 56/77/43
f 36/78/44 35/79/45 34/80/46
f 37/66/32 36/78/44 34/80/46
f 47/81/47 46/82/48 48/83/49
f 55/75/41 53/84/50 34/80/46
f 55/85/41 56/86/43 59/87/51
f 51/88/40 59/89/51 57/90/52
f 51/88/40 52/91/39 59/89/51
f 50/92/38 51/88/40 57/90/52
f 47/93/47 48/94/49 57/90/52
f 46/95/48 47/96/47 57/97/52
f 43/98/37 44/99/36 57/97/52
f 39/100/33 40/101/53 58/102/54
f 38/103/34 39/104/33 58/105/54
f 37/106/32 38/103/34 58/105/54
f 35/107/45 36/108/44 59/89/51
f 34/109/46 35/110/45 59/87/51
f 56/86/43 32/111/42 59/87/51
f 58/102/54 42/112/35 43/98/37 57/97/52
f 40/113/53 42/69/35 41/114/55
f 48/83/49 50/72/38 49/115/56
f 53/84/50 55/75/41 54/116/57
f 33/117/58 32/76/42 34/80/46
f 40/113/53 37/66/32 34/80/46
f 53/84/50 40/113/53 34/80/46
f 39/67/33 37/66/32 40/113/53
f 44/70/36 42/69/35 40/113/53
f 48/83/49 45/118/59 40/113/53
f 45/118/59 44/70/36 40/113/53
f 53/84/50 48/83/49 40/113/53
f 46/82/48 45/118/59 48/83/49
f 53/84/50 52/73/39 48/83/49
f 52/73/39 50/72/38 48/83/49
f 32/76/42 55/75/41 34/80/46
f 57/90/52 59/89/51 58/105/54
f 54/119/57 55/85/41 59/87/51
f 53/120/50 54/119/57 59/87/51
f 52/121/39 53/120/50 59/87/51
f 49/122/56 50/92/38 57/90/52
f 48/94/49 49/122/56 57/90/52
f 45/123/59 46/95/48 57/97/52
f 44/99/36 45/123/59 57/97/52
f 41/124/55 42/112/35 58/102/54
f 40/101/53 41/124/55 58/102/54
f 36/108/44 37/106/32 58/105/54
f 59/89/51 36/108/44 58/105/54
f 33/125/58 34/109/46 59/87/51
f 32/111/42 33/125/58 59/87/51
o pCylinder5
v 0.391071 2.137029 -0.095070
v 0.282629 2.136280 -0.282630
v 0.153175 2.136982 -0.366952
v -0.000000 2.137138 -0.399736
v -0.153318 2.136254 -0.367077
v -0.259071 2.136980 -0.301662
v -0.356015 2.136868 -0.181402
v -0.396514 2.136148 -0.032392
v -0.372263 2.137030 0.152954
v -0.211262 2.137029 0.342555
v -0.032389 2.136212 0.396500
v 0.091768 2.136982 0.386906
v 0.234959 2.137140 0.323395
v 0.339617 2.136988 0.206830
v 0.387124 2.136124 0.091721
v -0.002920 2.681692 0.009790
v -0.006506 2.681824 -0.008341
v 0.010083 2.681642 -0.000860
vt 0.0036 0.2431
vt 0.0323 0.1463
vt 0.0938 0.0659
vt 0.1634 0.0230
vt 0.8420 0.4764
vt 0.7885 0.5055
vt 0.6848 0.2680
vt 0.6929 0.2645
vt 0.4876 0.4004
vt 0.4171 0.4749
vt 0.5188 0.3247
vt 0.5153 0.2033
vt 0.4482 0.0803
vt 0.5772 0.8245
vt 0.5774 0.7032
vt 0.9385 0.7641
vt 0.5774 0.9003
vt 0.5773 0.9674
vt 0.9386 0.7690
vt 0.2097 0.9626
vt 0.2096 0.8823
vt 0.5708 0.7662
vt 0.5872 0.5054
vt 0.5338 0.4764
vt 0.6878 0.5242
vt 0.5772 0.5802
vt 0.2642 0.0042
vt 0.3650 0.0230
vt 0.2430 0.5251
vt 0.1286 0.4842
vt 0.0253 0.3625
vt 0.3246 0.5189
vt 0.6862 0.2597
vt 0.7482 0.0102
vt 0.8238 0.0412
vt 0.6666 0.0040
vt 0.5605 0.0378
vt 0.2097 0.6661
vt 0.2097 0.5659
vt 0.5709 0.7605
vt 0.2095 0.7855
vn -0.9065 -0.4180 -0.0595
vn -0.8124 -0.4116 -0.4130
vn -0.6009 -0.4196 -0.6803
vn -0.3364 -0.4237 -0.8411
vn 0.6557 -0.4102 -0.6338
vn 0.3464 -0.4123 -0.8426
vn -0.2756 0.8845 -0.3764
vn 0.5383 0.8414 -0.0482
vn 0.7688 -0.4167 0.4851
vn 0.5375 -0.4067 0.7387
vn 0.8866 -0.4228 0.1873
vn 0.8889 -0.3981 -0.2267
vn -0.1716 0.8596 0.4813
vn 0.0005 -0.4053 -0.9142
vn -0.0948 -0.4219 0.9017
vn -0.5004 -0.3989 0.7685
vn -0.8399 -0.3989 0.3679
vn 0.2237 -0.4180 0.8805
usemtl phong2SG
s 1
f 67/126/60 66/127/61 65/128/62 64/129/63
f 61/130/64 62/131/65 76/132/66 77/133/67
f 73/134/68 72/135/69 74/136/70
f 60/137/71 74/136/70 61/138/64
f 74/139/70 60/140/71 77/141/67
f 73/142/68 74/139/70 77/141/67
f 72/143/69 77/141/67 75/144/72
f 72/143/69 73/142/68 77/141/67
f 65/145/62 66/146/61 76/147/66
f 64/148/63 65/149/62 76/132/66
f 63/150/73 64/148/63 76/132/66
f 60/140/71 61/151/64 77/141/67
f 74/136/70 64/129/63 61/138/64
f 74/136/70 67/126/60 64/129/63
f 63/152/73 62/153/65 61/138/64 64/129/63
f 70/154/74 69/155/75 67/126/60
f 69/155/75 68/156/76 67/126/60
f 74/136/70 70/154/74 67/126/60
f 74/136/70 72/135/69 70/154/74
f 72/135/69 71/157/77 70/154/74
f 77/133/67 76/132/66 75/158/72
f 71/159/77 72/160/69 75/158/72
f 70/161/74 71/159/77 75/158/72
f 69/162/75 70/161/74 75/158/72
f 68/163/76 69/164/75 75/165/72
f 67/166/60 68/163/76 76/147/66
f 76/147/66 68/163/76 75/165/72
f 66/146/61 67/166/60 76/147/66
f 62/131/65 63/150/73 76/132/66
o pCylinder3
v 0.720009 1.252548 -0.233932
v 0.648396 1.254453 -0.394886
v 0.535255 1.254892 -0.535255
v 0.394894 1.254457 -0.648393
v 0.233936 1.252585 -0.719999
v 0.061340 1.256780 -0.756148
v -0.118477 1.253410 -0.748013
v -0.346281 1.254773 -0.679594
v -0.575924 1.254454 -0.494629
v -0.700865 1.252852 -0.292755
v -0.756149 1.256780 -0.061341
v -0.748013 1.253410 0.118481
v -0.700391 1.255575 0.292237
v -0.575932 1.254452 0.494625
v -0.444984 1.252625 0.612462
v -0.292431 1.254449 0.700597
v -0.061351 1.256780 0.756148
v 0.175148 1.253922 0.738829
v 0.343910 1.252806 0.674916
v 0.494629 1.254455 0.575932
v 0.679593 1.254776 0.346278
v 0.748013 1.253411 0.118473
v 0.756148 1.256780 -0.061348
v 0.009648 2.294450 0.017191
v -0.019874 2.294685 -0.004036
v 0.012499 2.294302 -0.014345
vt 0.1462 0.0324
vt 0.2232 0.0052
vt 0.3453 0.0148
vt 0.0229 0.1635
vt 0.5234 0.3054
vt 0.5138 0.1833
vt 0.5249 0.2432
vt 0.4003 0.0410
vt 0.4498 0.0789
vt 0.0229 0.3651
vt 0.0051 0.3054
vt 0.1100 0.4766
vt 0.0658 0.4348
vt 0.4962 0.3825
vt 0.3834 0.4981
vt 0.3246 0.5189
vt 0.1635 0.5057
vt 0.4347 0.4628
vt 0.5338 0.0523
vt 0.5873 0.0233
vt 0.6901 0.2599
vt 0.6838 0.2651
vt 0.5770 0.8053
vt 0.5781 0.7431
vt 0.9385 0.7676
vt 0.5775 0.9626
vt 0.5778 0.8823
vt 0.8068 0.0310
vt 0.8420 0.0523
vt 0.6914 0.2683
vt 0.6469 0.5231
vt 0.5699 0.4960
vt 0.2098 0.5939
vt 0.2091 0.5520
vt 0.5303 0.7884
vt 0.2102 0.6636
vt 0.2093 0.7232
vt 0.8238 0.4875
vt 0.7689 0.5137
vt 0.5775 0.5788
vt 0.5771 0.5520
vt 0.9386 0.7607
vt 0.5768 0.6832
vt 0.2854 0.0037
vt 0.0035 0.2432
vt 0.2431 0.5251
vt 0.4876 0.1283
vt 0.0658 0.0940
vt 0.7481 0.0102
vt 0.6668 0.0040
vt 0.2104 0.7854
vt 0.2093 0.8651
vt 0.2098 0.9346
vt 0.2094 0.9765
vt 0.7090 0.5248
vt 0.5775 0.6282
vn -0.4240 -0.4131 -0.8059
vn -0.1582 -0.4324 -0.8877
vn 0.2801 -0.4384 -0.8540
vn -0.8344 -0.4272 -0.3484
vn 0.8902 -0.4280 0.1559
vn 0.8538 -0.4394 -0.2792
vn 0.8980 -0.4240 0.1177
vn 0.4753 -0.4183 -0.7740
vn 0.6414 -0.4214 -0.6411
vn -0.8325 -0.4212 0.3598
vn -0.8879 -0.4368 0.1440
vn -0.5328 -0.4358 0.7254
vn -0.6979 -0.4199 0.5802
vn 0.8077 -0.4135 0.4203
vn 0.4069 -0.4365 0.8024
vn 0.1980 -0.4234 0.8841
vn -0.3431 -0.4167 0.8418
vn 0.6117 -0.4164 0.6726
vn 0.2300 0.8535 0.4676
vn -0.4688 0.8807 -0.0682
vn 0.3299 0.8527 -0.4051
vn 0.1854 -0.5494 -0.8147
vn -0.7994 -0.5675 -0.1972
vn -0.1872 -0.5890 0.7862
vn 0.7731 -0.4187 -0.4764
vn -0.6802 -0.4178 -0.6023
usemtl phong2SG
s 1
f 85/167/78 84/168/79 82/169/80 87/170/81
f 99/171/82 78/172/83 100/173/84
f 81/174/85 80/175/86 82/169/80
f 90/176/87 89/177/88 87/170/81 92/178/89
f 91/179/90 90/176/87 92/178/89
f 78/172/83 99/171/82 98/180/91 96/181/92
f 95/182/93 93/183/94 92/178/89
f 95/182/93 92/178/89 96/181/92
f 98/180/91 97/184/95 96/181/92
f 92/185/89 93/186/94 101/187/96 102/188/97
f 99/189/82 100/190/84 101/191/96
f 97/192/95 98/193/91 101/191/96
f 96/194/92 97/195/95 101/187/96
f 103/196/98 84/197/79 85/198/78 102/188/97
f 91/199/90 92/200/89 102/201/97
f 90/202/87 91/199/90 102/201/97
f 89/203/88 90/202/87 102/201/97
f 81/204/85 82/205/80 103/196/98
f 80/206/86 81/207/85 103/208/98
f 100/190/84 103/208/98 101/191/96
f 100/190/84 78/209/83 103/208/98
f 82/169/80 84/168/79 83/210/99
f 87/170/81 89/177/88 88/211/100
f 93/183/94 95/182/93 94/212/101
f 82/169/80 79/213/102 78/172/83
f 80/175/86 79/213/102 82/169/80
f 78/172/83 87/170/81 82/169/80
f 86/214/103 85/167/78 87/170/81
f 78/172/83 92/178/89 87/170/81
f 78/172/83 96/181/92 92/178/89
f 102/188/97 101/187/96 103/196/98
f 98/193/91 99/189/82 101/191/96
f 95/215/93 96/194/92 101/187/96
f 94/216/101 95/215/93 101/187/96
f 93/186/94 94/216/101 101/187/96
f 88/217/100 89/203/88 102/201/97
f 87/218/81 88/217/100 102/201/97
f 86/219/103 87/218/81 102/201/97
f 85/220/78 86/219/103 102/201/97
f 83/221/99 84/197/79 103/196/98
f 82/205/80 83/221/99 103/196/98
f 79/222/102 80/206/86 103/208/98
f 78/209/83 79/222/102 103/208/98
o pCylinder1
v 0.092740 0.040620 -0.056850
v 0.016793 0.040841 -0.106044
v -0.077131 0.040668 -0.078430
v -0.106283 0.040829 0.015984
v -0.069795 0.040543 0.080464
v -0.009164 0.040818 0.106129
v 0.062488 0.040806 0.087448
v 0.103395 0.040570 0.025603
v 0.075642 0.991692 -0.076329
v -0.080667 0.991205 0.069573
v -0.032304 0.991223 0.100722
v 0.085627 0.992044 0.062044
v 0.107477 0.991236 -0.000488
v 0.033675 0.991202 0.102069
v -0.104360 0.991832 0.017120
v -0.095952 0.991729 -0.048381
v -0.048363 0.991233 -0.094075
v 0.007924 0.991269 -0.106225
vt 0.8099 0.0493
vt 0.8302 0.1203
vt 0.8044 0.1814
vt 0.7491 0.0068
vt 0.8076 0.2631
vt 0.8559 0.2302
vt 0.7825 0.3160
vt 0.9759 0.2706
vt 0.0733 0.0020
vt 0.0998 0.9895
vt 0.0375 0.9895
vt 0.0149 0.0020
vt 0.0066 0.9895
vt 0.5492 0.0020
vt 0.5886 0.9895
vt 0.5254 0.9895
vt 0.4865 0.0020
vt 0.5025 0.9895
vt 0.4755 0.9895
vt 0.4213 0.0020
vt 0.4218 0.9895
vt 0.3574 0.9895
vt 0.3325 0.0020
vt 0.3128 0.9895
vt 0.1541 0.0020
vt 0.1964 0.0020
vt 0.1747 0.9895
vt 0.2692 0.9895
vt 0.2605 0.0020
vt 0.3020 0.0020
vt 0.6494 0.1839
vt 0.6181 0.0943
vt 0.6683 0.0215
vt 0.7391 0.2163
vt 0.9638 0.4087
vt 0.8969 0.4403
vt 0.7940 0.3812
vt 0.8395 0.4294
vt 0.9222 0.2321
vt 0.9953 0.3338
vt 0.6024 0.0020
vt 0.5089 0.0020
vt 0.2114 0.9895
vt 0.2081 0.0020
vn 0.4482 -0.6366 0.6276
vn -0.0560 -0.6415 0.7651
vn -0.5102 -0.6425 0.5717
vn 0.7486 -0.6397 0.1743
vn -0.5775 0.6421 0.5042
vn -0.2270 0.6495 0.7257
vn -0.7502 0.6519 0.1107
vn 0.6147 0.6509 0.4456
vn 0.7781 0.6278 -0.0221
vn 0.2392 0.6318 0.7373
vn -0.7743 -0.6272 0.0841
vn -0.6843 0.6432 -0.3436
vn -0.5422 -0.6199 -0.5672
vn -0.3707 0.6408 -0.6723
vn 0.6591 -0.6264 -0.4163
vn 0.1226 -0.6219 -0.7734
vn 0.5475 0.6350 -0.5450
vn 0.0622 0.6429 -0.7634
usemtl phong1SG
s 1
f 110/223/104 109/224/105 108/225/106
f 110/223/104 108/225/106 111/226/107
f 113/227/108 114/228/109 118/229/110
f 114/228/109 115/230/111 118/229/110
f 111/231/107 116/232/112 115/233/111
f 110/234/104 115/233/111 117/235/113
f 109/236/105 117/237/113 114/238/109
f 108/239/106 114/240/109 113/241/108
f 107/242/114 113/241/108 118/243/110
f 107/242/114 118/243/110 119/244/115
f 106/245/116 119/244/115 120/246/117
f 104/247/118 105/248/119 112/249/120
f 105/250/119 121/251/121 112/252/120
f 104/247/118 112/249/120 116/232/112
f 106/253/116 105/254/119 104/255/118
f 104/255/118 108/225/106 106/253/116
f 107/256/114 106/253/116 108/225/106
f 104/255/118 111/226/107 108/225/106
f 112/257/120 121/258/121 119/259/115
f 121/258/121 120/260/117 119/259/115
f 115/230/111 112/257/120 119/259/115
f 115/230/111 119/259/115 118/229/110
f 114/228/109 117/261/113 115/230/111
f 116/262/112 112/257/120 115/230/111
f 111/231/107 104/247/118 116/232/112
f 110/234/104 111/231/107 115/233/111
f 109/236/105 110/263/104 117/237/113
f 108/264/106 109/236/105 114/238/109
f 107/242/114 108/239/106 113/241/108
f 106/245/116 107/242/114 119/244/115
f 105/250/119 106/265/116 120/266/117 121/251/121
