# Blender v2.77 (sub 0) OBJ File: 'tree.blend'
# www.blender.org
mtllib tree.mtl
o Cylinder
v 0.000000 1.133387 -1.557657
v -0.000000 6.309579 -0.101440
v 1.060660 1.309579 -1.060660
v 0.071729 6.309579 -0.071729
v 1.557657 1.133387 0.000000
v 0.101440 6.309579 -0.000000
v 1.060660 1.309579 1.060660
v 0.071729 6.309579 0.071729
v -0.000000 1.133387 1.557657
v -0.000000 6.309579 0.101440
v -1.060660 1.309579 1.060660
v -0.071729 6.309579 0.071729
v -1.557657 1.133387 -0.000000
v -0.101440 6.309579 -0.000000
v -1.060660 1.309579 -1.060660
v -0.071729 6.309579 -0.071729
v 0.000000 1.966720 -1.315604
v 0.000000 2.800054 -1.073551
v 0.000000 3.633387 -0.831498
v 0.000000 4.466721 -0.589445
v -0.000000 5.300054 -0.347392
v 0.236551 5.476246 -0.236551
v 0.401373 4.642912 -0.401373
v 0.566195 3.809579 -0.566195
v 0.731017 2.976246 -0.731017
v 0.895838 2.142912 -0.895838
v 0.347392 5.300054 0.000000
v 0.589445 4.466721 0.000000
v 0.831498 3.633387 0.000000
v 1.073551 2.800054 0.000000
v 1.315604 1.966720 0.000000
v 0.236551 5.476246 0.236551
v 0.401373 4.642912 0.401373
v 0.566195 3.809579 0.566195
v 0.731017 2.976246 0.731017
v 0.895838 2.142912 0.895838
v -0.000000 5.300054 0.347392
v -0.000000 4.466721 0.589445
v -0.000000 3.633387 0.831498
v -0.000000 2.800054 1.073551
v -0.000000 1.966720 1.315604
v -0.236551 5.476246 0.236551
v -0.401373 4.642912 0.401373
v -0.566195 3.809579 0.566195
v -0.731017 2.976246 0.731016
v -0.895838 2.142912 0.895838
v -0.347392 5.300054 -0.000000
v -0.589445 4.466721 -0.000000
v -0.831498 3.633387 -0.000000
v -1.073551 2.800054 -0.000000
v -1.315604 1.966720 -0.000000
v -0.236551 5.476246 -0.236551
v -0.401373 4.642912 -0.401373
v -0.566195 3.809579 -0.566195
v -0.731017 2.976246 -0.731016
v -0.895838 2.142912 -0.895838
v 0.000000 5.207794 -0.542774
v 0.369593 5.383986 -0.369593
v 0.542774 5.207794 0.000000
v 0.369593 5.383986 0.369593
v -0.000000 5.207794 0.542774
v -0.369593 5.383986 0.369593
v -0.542774 5.207794 -0.000000
v -0.369593 5.383986 -0.369593
v 0.000000 4.374461 -0.924563
v 0.629566 4.550653 -0.629566
v 0.924563 4.374460 0.000000
v 0.629566 4.550653 0.629566
v -0.000000 4.374460 0.924563
v -0.629566 4.550653 0.629566
v -0.924563 4.374460 -0.000000
v -0.629566 4.550653 -0.629566
v 0.000000 3.541127 -1.148746
v 0.782219 3.717319 -0.782219
v 1.148746 3.541127 0.000000
v 0.782219 3.717319 0.782219
v -0.000000 3.541127 1.148746
v -0.782219 3.717319 0.782219
v -1.148746 3.541127 -0.000000
v -0.782219 3.717319 -0.782219
v 0.000000 2.707794 -1.412379
v 0.961736 2.883986 -0.961736
v 1.412379 2.707794 0.000000
v 0.961736 2.883986 0.961736
v -0.000000 2.707794 1.412379
v -0.961736 2.883986 0.961736
v -1.412379 2.707794 -0.000000
v -0.961736 2.883986 -0.961736
v 0.000000 1.874460 -1.622899
v 1.105085 2.050653 -1.105085
v 1.622899 1.874460 0.000000
v 1.105085 2.050653 1.105085
v -0.000000 1.874460 1.622899
v -1.105086 2.050653 1.105085
v -1.622899 1.874460 -0.000000
v -1.105086 2.050653 -1.105085
v 1.261451 1.217319 -1.261451
v 1.852532 1.041127 0.000000
v 1.261451 1.217319 1.261451
v -0.000000 1.041127 1.852532
v -1.261451 1.217319 1.261450
v -1.852532 1.041127 -0.000000
v -1.261451 1.217319 -1.261451
v 0.000000 1.041127 -1.852532
v -0.176074 0.733322 -0.176074
v -0.249006 0.733322 -0.000000
v -0.000000 0.733322 -0.249006
v 0.176074 0.733322 -0.176074
v 0.249006 0.733322 0.000000
v 0.176074 0.733322 0.176074
v -0.192660 1.277550 -0.192660
v -0.192660 -0.025837 -0.192660
v -0.272463 1.277550 -0.000000
v -0.272463 -0.025837 -0.000000
v -0.192660 1.277550 0.192660
v -0.192660 -0.025837 0.192660
v -0.000000 1.277550 0.272463
v -0.000000 -0.025837 0.272463
v 0.192660 1.277550 0.192660
v 0.192660 -0.025837 0.192660
v 0.272463 1.277550 0.000000
v 0.272463 -0.025837 0.000000
v 0.192660 1.277550 -0.192660
v 0.192660 -0.025837 -0.192660
v -0.000000 1.277550 -0.272463
v -0.000000 -0.025837 -0.272463
v -0.176074 0.733322 0.176074
v -0.000000 0.733322 0.249006
vn 0.2649 0.3644 -0.8927
vn 0.8927 0.3644 -0.2649
vn 0.8927 0.3644 0.2649
vn 0.2649 0.3644 0.8927
vn -0.2649 0.3644 0.8927
vn -0.8927 0.3644 0.2649
vn 0.0000 1.0000 0.0000
vn -0.2649 0.3644 -0.8927
vn -0.8927 0.3644 -0.2649
vn -0.0000 -1.0000 0.0000
vn -0.8282 0.4654 -0.3121
vn -0.8290 0.4736 -0.2975
vn -0.8256 0.4938 -0.2730
vn -0.8411 0.4789 -0.2515
vn -0.8498 0.4878 -0.1997
vn -0.3121 0.4654 -0.8282
vn -0.2975 0.4736 -0.8290
vn -0.2730 0.4938 -0.8256
vn -0.2515 0.4789 -0.8411
vn -0.1997 0.4878 -0.8498
vn -0.8282 0.4654 0.3121
vn -0.8290 0.4736 0.2975
vn -0.8256 0.4938 0.2730
vn -0.8411 0.4789 0.2515
vn -0.8498 0.4878 0.1997
vn -0.3121 0.4654 0.8282
vn -0.2975 0.4736 0.8290
vn -0.2730 0.4938 0.8256
vn -0.2515 0.4789 0.8411
vn -0.1997 0.4878 0.8498
vn 0.3121 0.4654 0.8282
vn 0.2975 0.4736 0.8290
vn 0.2730 0.4938 0.8256
vn 0.2515 0.4789 0.8411
vn 0.1997 0.4878 0.8498
vn 0.8282 0.4654 0.3121
vn 0.8290 0.4736 0.2975
vn 0.8256 0.4938 0.2730
vn 0.8411 0.4789 0.2515
vn 0.8498 0.4878 0.1997
vn 0.8282 0.4654 -0.3121
vn 0.8290 0.4736 -0.2975
vn 0.8256 0.4938 -0.2730
vn 0.8411 0.4789 -0.2515
vn 0.8498 0.4878 -0.1997
vn 0.3121 0.4654 -0.8282
vn 0.2975 0.4736 -0.8290
vn 0.2730 0.4938 -0.8256
vn 0.2515 0.4789 -0.8411
vn 0.1997 0.4878 -0.8498
vn 0.5435 -0.8110 -0.2168
vn -0.2168 -0.8110 0.5435
vn 0.5435 -0.8110 0.2168
vn -0.2168 -0.8110 -0.5435
vn 0.2168 -0.8110 -0.5435
vn -0.5435 -0.8110 0.2168
vn -0.5435 -0.8110 -0.2168
vn 0.2168 -0.8110 0.5435
vn 0.1458 -0.9212 0.3608
vn -0.3608 -0.9212 -0.1458
vn -0.3608 -0.9212 0.1458
vn 0.1458 -0.9212 -0.3608
vn -0.1458 -0.9212 -0.3608
vn 0.3608 -0.9212 0.1458
vn -0.1458 -0.9212 0.3608
vn 0.3608 -0.9212 -0.1458
vn 0.0777 -0.9320 0.3540
vn -0.3540 -0.9320 -0.0777
vn -0.3540 -0.9320 0.0777
vn 0.0777 -0.9320 -0.3540
vn -0.0777 -0.9320 -0.3540
vn 0.3540 -0.9320 0.0777
vn -0.0777 -0.9320 0.3540
vn 0.3540 -0.9320 -0.0777
vn 0.0448 -0.9449 0.3243
vn -0.3243 -0.9449 -0.0448
vn -0.3243 -0.9449 0.0448
vn 0.0448 -0.9449 -0.3243
vn -0.0448 -0.9449 -0.3243
vn 0.3243 -0.9449 0.0448
vn -0.0448 -0.9449 0.3243
vn 0.3243 -0.9449 -0.0448
vn 0.0069 -0.9408 0.3389
vn -0.3389 -0.9408 -0.0069
vn -0.3389 -0.9408 0.0069
vn 0.0069 -0.9408 -0.3389
vn -0.0069 -0.9408 -0.3389
vn 0.3389 -0.9408 0.0069
vn -0.0069 -0.9408 0.3389
vn 0.3389 -0.9408 -0.0069
vn -0.0179 -0.9394 0.3424
vn -0.3424 -0.9394 0.0179
vn -0.3424 -0.9394 -0.0179
vn -0.0179 -0.9394 -0.3424
vn 0.0179 -0.9394 -0.3424
vn 0.3424 -0.9394 -0.0179
vn 0.0179 -0.9394 0.3424
vn 0.3424 -0.9394 0.0179
vn 0.9235 0.0285 0.3825
vn 0.3824 -0.0398 -0.9231
vn 0.3825 0.0285 0.9235
vn 0.9231 -0.0398 -0.3824
vn -0.3825 0.0285 0.9235
vn 0.9231 -0.0398 0.3824
vn -0.9235 0.0285 0.3825
vn 0.3824 -0.0398 0.9231
vn -0.3825 0.0285 -0.9235
vn -0.3824 -0.0398 0.9231
vn 0.3825 0.0285 -0.9235
vn -0.9235 0.0285 -0.3825
vn -0.9231 -0.0398 0.3824
vn -0.3824 -0.0398 -0.9231
vn -0.9231 -0.0398 -0.3824
vn 0.9235 0.0285 -0.3825
usemtl TreeLeaves
s off
f 57//1 2//1 4//1 58//1
f 58//2 4//2 6//2 59//2
f 59//3 6//3 8//3 60//3
f 60//4 8//4 10//4 61//4
f 61//5 10//5 12//5 62//5
f 62//6 12//6 14//6 63//6
f 4//7 2//7 16//7 14//7 12//7 10//7 8//7 6//7
f 64//8 16//8 2//8 57//8
f 63//9 14//9 16//9 64//9
f 1//10 3//10 5//10 7//10 9//10 11//10 13//10 15//10
f 102//11 51//11 56//11 103//11
f 95//12 50//12 55//12 96//12
f 87//13 49//13 54//13 88//13
f 79//14 48//14 53//14 80//14
f 71//15 47//15 52//15 72//15
f 103//16 56//16 17//16 104//16
f 96//17 55//17 18//17 89//17
f 88//18 54//18 19//18 81//18
f 80//19 53//19 20//19 73//19
f 72//20 52//20 21//20 65//20
f 101//21 46//21 51//21 102//21
f 94//22 45//22 50//22 95//22
f 86//23 44//23 49//23 87//23
f 78//24 43//24 48//24 79//24
f 70//25 42//25 47//25 71//25
f 100//26 41//26 46//26 101//26
f 93//27 40//27 45//27 94//27
f 85//28 39//28 44//28 86//28
f 77//29 38//29 43//29 78//29
f 69//30 37//30 42//30 70//30
f 99//31 36//31 41//31 100//31
f 92//32 35//32 40//32 93//32
f 84//33 34//33 39//33 85//33
f 76//34 33//34 38//34 77//34
f 68//35 32//35 37//35 69//35
f 98//36 31//36 36//36 99//36
f 91//37 30//37 35//37 92//37
f 83//38 29//38 34//38 84//38
f 75//39 28//39 33//39 76//39
f 67//40 27//40 32//40 68//40
f 97//41 26//41 31//41 98//41
f 90//42 25//42 30//42 91//42
f 82//43 24//43 29//43 83//43
f 74//44 23//44 28//44 75//44
f 66//45 22//45 27//45 67//45
f 104//46 17//46 26//46 97//46
f 89//47 18//47 25//47 90//47
f 81//48 19//48 24//48 82//48
f 73//49 20//49 23//49 74//49
f 65//50 21//50 22//50 66//50
f 47//51 63//51 64//51 52//51
f 52//52 64//52 57//52 21//52
f 42//53 62//53 63//53 47//53
f 37//54 61//54 62//54 42//54
f 32//55 60//55 61//55 37//55
f 27//56 59//56 60//56 32//56
f 22//57 58//57 59//57 27//57
f 21//58 57//58 58//58 22//58
f 20//59 65//59 66//59 23//59
f 23//60 66//60 67//60 28//60
f 28//61 67//61 68//61 33//61
f 33//62 68//62 69//62 38//62
f 38//63 69//63 70//63 43//63
f 43//64 70//64 71//64 48//64
f 53//65 72//65 65//65 20//65
f 48//66 71//66 72//66 53//66
f 19//67 73//67 74//67 24//67
f 24//68 74//68 75//68 29//68
f 29//69 75//69 76//69 34//69
f 34//70 76//70 77//70 39//70
f 39//71 77//71 78//71 44//71
f 44//72 78//72 79//72 49//72
f 54//73 80//73 73//73 19//73
f 49//74 79//74 80//74 54//74
f 18//75 81//75 82//75 25//75
f 25//76 82//76 83//76 30//76
f 30//77 83//77 84//77 35//77
f 35//78 84//78 85//78 40//78
f 40//79 85//79 86//79 45//79
f 45//80 86//80 87//80 50//80
f 55//81 88//81 81//81 18//81
f 50//82 87//82 88//82 55//82
f 17//83 89//83 90//83 26//83
f 26//84 90//84 91//84 31//84
f 31//85 91//85 92//85 36//85
f 36//86 92//86 93//86 41//86
f 41//87 93//87 94//87 46//87
f 46//88 94//88 95//88 51//88
f 56//89 96//89 89//89 17//89
f 51//90 95//90 96//90 56//90
f 1//91 104//91 97//91 3//91
f 3//92 97//92 98//92 5//92
f 5//93 98//93 99//93 7//93
f 7//94 99//94 100//94 9//94
f 9//95 100//95 101//95 11//95
f 11//96 101//96 102//96 13//96
f 15//97 103//97 104//97 1//97
f 13//98 102//98 103//98 15//98
usemtl Bark
f 122//99 109//99 110//99 120//99
f 107//100 125//100 123//100 108//100
f 120//101 110//101 128//101 118//101
f 108//102 123//102 121//102 109//102
f 118//103 128//103 127//103 116//103
f 109//104 121//104 119//104 110//104
f 116//105 127//105 106//105 114//105
f 110//106 119//106 117//106 128//106
f 112//107 105//107 107//107 126//107
f 128//108 117//108 115//108 127//108
f 126//109 107//109 108//109 124//109
f 114//110 106//110 105//110 112//110
f 127//111 115//111 113//111 106//111
f 123//7 125//7 111//7 113//7 115//7 117//7 119//7 121//7
f 105//112 111//112 125//112 107//112
f 106//113 113//113 111//113 105//113
f 124//114 108//114 109//114 122//114
f 126//10 124//10 122//10 120//10 118//10 116//10 114//10 112//10
